<svg xmlns="http://www.w3.org/2000/svg" width="800" height="450" viewBox="0 0 800 450">
  <rect width="800" height="450" fill="#f0fdf4" rx="8"/>
  <rect x="20" y="20" width="760" height="50" fill="#018606" rx="6"/>
  <text x="400" y="52" text-anchor="middle" fill="white" font-family="Inter, sans-serif" font-size="16" font-weight="600">KADERBLICK — Spielerübersicht</text>
  <rect x="20" y="90" width="180" height="340" fill="#e5e7eb" rx="6"/>
  <text x="110" y="270" text-anchor="middle" fill="#6b7280" font-family="Inter, sans-serif" font-size="12">Sidebar</text>
  <rect x="220" y="90" width="260" height="80" fill="white" rx="6" stroke="#e5e7eb"/>
  <circle cx="260" cy="130" r="25" fill="#d1d5db"/>
  <rect x="300" y="110" width="120" height="14" fill="#d1d5db" rx="3"/>
  <rect x="300" y="134" width="80" height="10" fill="#e5e7eb" rx="2"/>
  <rect x="500" y="90" width="260" height="80" fill="white" rx="6" stroke="#e5e7eb"/>
  <circle cx="540" cy="130" r="25" fill="#d1d5db"/>
  <rect x="580" y="110" width="120" height="14" fill="#d1d5db" rx="3"/>
  <rect x="580" y="134" width="80" height="10" fill="#e5e7eb" rx="2"/>
  <rect x="220" y="190" width="260" height="80" fill="white" rx="6" stroke="#e5e7eb"/>
  <circle cx="260" cy="230" r="25" fill="#d1d5db"/>
  <rect x="300" y="210" width="120" height="14" fill="#d1d5db" rx="3"/>
  <rect x="300" y="234" width="80" height="10" fill="#e5e7eb" rx="2"/>
  <rect x="500" y="190" width="260" height="80" fill="white" rx="6" stroke="#e5e7eb"/>
  <circle cx="540" cy="230" r="25" fill="#d1d5db"/>
  <rect x="580" y="210" width="120" height="14" fill="#d1d5db" rx="3"/>
  <rect x="580" y="234" width="80" height="10" fill="#e5e7eb" rx="2"/>
  <text x="510" y="360" text-anchor="middle" fill="#9ca3af" font-family="Inter, sans-serif" font-size="11">📷 Ersetze dieses Bild durch einen echten Screenshot</text>
</svg>
